<?xml version="1.0" encoding="UTF-8" standalone="no"?>
<!-- Created with Inkscape (http://www.inkscape.org/) -->

<svg
   xmlns:dc="http://purl.org/dc/elements/1.1/"
   xmlns:cc="http://creativecommons.org/ns#"
   xmlns:rdf="http://www.w3.org/1999/02/22-rdf-syntax-ns#"
   xmlns:svg="http://www.w3.org/2000/svg"
   xmlns="http://www.w3.org/2000/svg"
   xmlns:sodipodi="http://sodipodi.sourceforge.net/DTD/sodipodi-0.dtd"
   xmlns:inkscape="http://www.inkscape.org/namespaces/inkscape"
   width="500"
   height="500"
   viewBox="0 0 132.29167 132.29167"
   version="1.1"
   id="svg8"
   inkscape:version="0.92.4 (5da689c313, 2019-01-14)"
   sodipodi:docname="phone.svg"
   inkscape:export-filename="C:\Users\Kenny\Desktop\code\resume\site\phone2.png"
   inkscape:export-xdpi="96"
   inkscape:export-ydpi="96">
  <defs
     id="defs2" />
  <sodipodi:namedview
     id="base"
     pagecolor="#ffffff"
     bordercolor="#666666"
     borderopacity="1.0"
     inkscape:pageopacity="0"
     inkscape:pageshadow="2"
     inkscape:zoom="2.1332147"
     inkscape:cx="164.7798"
     inkscape:cy="269.34152"
     inkscape:document-units="mm"
     inkscape:current-layer="layer1"
     showgrid="false"
     units="px"
     inkscape:window-width="1920"
     inkscape:window-height="1027"
     inkscape:window-x="-8"
     inkscape:window-y="59"
     inkscape:window-maximized="1"
     inkscape:snap-bbox="true"
     inkscape:bbox-paths="true"
     inkscape:bbox-nodes="true"
     inkscape:snap-bbox-edge-midpoints="true"
     inkscape:snap-bbox-midpoints="true"
     inkscape:snap-intersection-paths="true"
     inkscape:object-paths="true" />
  <metadata
     id="metadata5">
    <rdf:RDF>
      <cc:Work
         rdf:about="">
        <dc:format>image/svg+xml</dc:format>
        <dc:type
           rdf:resource="http://purl.org/dc/dcmitype/StillImage" />
        <dc:title></dc:title>
      </cc:Work>
    </rdf:RDF>
  </metadata>
  <g
     inkscape:label="Layer 1"
     inkscape:groupmode="layer"
     id="layer1"
     transform="translate(0,-164.70834)">
    <path
       style="opacity:1;vector-effect:none;fill:#000000;fill-opacity:1;stroke:none;stroke-width:1.1093502;stroke-linecap:butt;stroke-linejoin:miter;stroke-miterlimit:4;stroke-dasharray:none;stroke-dashoffset:0;stroke-opacity:1"
       d="M 250 0 A 250.00001 250.00001 0 0 0 0 250 A 250.00001 250.00001 0 0 0 250 500 A 250.00001 250.00001 0 0 0 500 250 A 250.00001 250.00001 0 0 0 250 0 z M 196.99219 94.748047 L 303.00781 94.748047 C 314.98474 94.748047 324.62695 104.39026 324.62695 116.36719 L 324.62695 140.96484 L 325.79688 140.96484 C 325.91351 140.96484 326.00781 141.05914 326.00781 141.17578 L 326.00781 163.01758 C 326.00781 163.13422 325.91351 163.22852 325.79688 163.22852 L 324.62695 163.22852 L 324.62695 383.63281 C 324.62695 395.60974 314.98474 405.25195 303.00781 405.25195 L 196.99219 405.25195 C 185.01526 405.25195 175.37305 395.60974 175.37305 383.63281 L 175.37305 206.30273 L 174.20312 206.30273 C 174.08673 206.30273 173.99219 206.21054 173.99219 206.09375 L 173.99219 184.25 C 173.99219 184.13321 174.08635 184.03906 174.20312 184.03906 L 175.37305 184.03906 L 175.37305 176.92773 L 174.20312 176.92773 C 174.08673 176.92773 173.99219 176.83554 173.99219 176.71875 L 173.99219 154.875 C 173.99219 154.75821 174.08635 154.66406 174.20312 154.66406 L 175.37305 154.66406 L 175.37305 141.16406 L 174.06445 141.16406 C 174.00663 141.16406 173.95898 141.11875 173.95898 141.06055 L 173.95898 130.1875 C 173.95898 130.1293 174.00625 130.08398 174.06445 130.08398 L 175.37305 130.08398 L 175.37305 116.36719 C 175.37305 104.39026 185.01526 94.748047 196.99219 94.748047 z "
       transform="matrix(0.26458333,0,0,0.26458333,0,164.70834)"
       id="path10" />
    <rect
       style="opacity:1;vector-effect:none;fill:#ffffff;fill-opacity:0;stroke:#000000;stroke-width:0.79375;stroke-linecap:butt;stroke-linejoin:miter;stroke-miterlimit:4;stroke-dasharray:none;stroke-dashoffset:10.50708675;stroke-opacity:1"
       id="rect832"
       width="35.385654"
       height="63.166901"
       x="48.453072"
       y="199.27072"
       ry="0"
       inkscape:export-xdpi="95.999992"
       inkscape:export-ydpi="95.999992" />
    <circle
       style="opacity:1;vector-effect:none;fill:#ffffff;fill-opacity:0;stroke:#000000;stroke-width:0.79375;stroke-linecap:butt;stroke-linejoin:miter;stroke-miterlimit:4;stroke-dasharray:none;stroke-dashoffset:10.50708675;stroke-opacity:1"
       id="path834"
       cx="66.145897"
       cy="266.51193"
       r="3.2352455"
       inkscape:export-xdpi="95.999992"
       inkscape:export-ydpi="95.999992" />
    <rect
       style="opacity:1;vector-effect:none;fill:#ffffff;fill-opacity:0;stroke:#000000;stroke-width:0.66145833;stroke-linecap:butt;stroke-linejoin:miter;stroke-miterlimit:4;stroke-dasharray:none;stroke-dashoffset:10.50708675;stroke-opacity:1"
       id="rect836"
       width="6.4476943"
       height="0.82898933"
       x="62.92205"
       y="195.0806"
       ry="0.41449466"
       inkscape:export-xdpi="95.999992"
       inkscape:export-ydpi="95.999992" />
    <circle
       style="opacity:1;vector-effect:none;fill:#ffffff;fill-opacity:0;stroke:#000000;stroke-width:0.66145833;stroke-linecap:butt;stroke-linejoin:miter;stroke-miterlimit:4;stroke-dasharray:none;stroke-dashoffset:10.50708675;stroke-opacity:1"
       id="path838"
       cx="66.145897"
       cy="192.36282"
       r="0.45006463"
       inkscape:export-xdpi="95.999992"
       inkscape:export-ydpi="95.999992" />
    <circle
       r="0.72010338"
       cy="195.49509"
       cx="60.098091"
       id="circle840"
       style="opacity:1;vector-effect:none;fill:#ffffff;fill-opacity:0;stroke:#000000;stroke-width:0.66145833;stroke-linecap:butt;stroke-linejoin:miter;stroke-miterlimit:4;stroke-dasharray:none;stroke-dashoffset:10.50708675;stroke-opacity:1"
       inkscape:export-xdpi="95.999992"
       inkscape:export-ydpi="95.999992" />
  </g>
</svg>
